<svg width="82" height="82" viewBox="0 0 82 82" fill="none" xmlns="http://www.w3.org/2000/svg">
<path fill-rule="evenodd" clip-rule="evenodd" d="M18.4888 2.34291H12.7379V7.45482H15.2939V28.1154H19.7668V7.45482H62.3659V28.1154H66.8388V7.45482H69.3947V2.55593H63.6438V0H18.4888V2.34291Z" fill="#174988"/>
<path fill-rule="evenodd" clip-rule="evenodd" d="M0.171143 31.9492H81.9614V28.7543H0.171143V31.9492Z" fill="#174988"/>
<path fill-rule="evenodd" clip-rule="evenodd" d="M2.72687 28.1153H14.0156V12.5667H2.72687V28.1153Z" fill="#174988"/>
<path fill-rule="evenodd" clip-rule="evenodd" d="M68.1166 28.1153H79.4053V12.5667H68.1166V28.1153Z" fill="#174988"/>
<path fill-rule="evenodd" clip-rule="evenodd" d="M27.2217 28.1154H29.7777V10.6498H27.2217V28.1154Z" fill="#174988"/>
<path fill-rule="evenodd" clip-rule="evenodd" d="M42.3442 28.1154H44.9002V10.6498H42.3442V28.1154Z" fill="#174988"/>
<path fill-rule="evenodd" clip-rule="evenodd" d="M52.3552 28.1154H54.9111V10.6498H52.3552V28.1154Z" fill="#174988"/>
<path fill-rule="evenodd" clip-rule="evenodd" d="M37.2322 28.1154H39.7881V10.6498H37.2322V28.1154Z" fill="#174988"/>
<path fill-rule="evenodd" clip-rule="evenodd" d="M32.3336 28.1154H34.8895V10.6498H32.3336V28.1154Z" fill="#174988"/>
<path fill-rule="evenodd" clip-rule="evenodd" d="M57.4667 28.1154H60.0227V10.6498H57.4667V28.1154Z" fill="#174988"/>
<path fill-rule="evenodd" clip-rule="evenodd" d="M22.3226 28.1154H24.6656V10.6498H22.3226V28.1154Z" fill="#174988"/>
<path fill-rule="evenodd" clip-rule="evenodd" d="M47.4562 28.1154H49.7992V10.6498H47.4562V28.1154Z" fill="#174988"/>
<path fill-rule="evenodd" clip-rule="evenodd" d="M1.44928 11.9277H14.229V8.73279H1.44928V11.9277Z" fill="#174988"/>
<path fill-rule="evenodd" clip-rule="evenodd" d="M68.1166 11.9277H80.6833V8.73279H68.1166V11.9277Z" fill="#174988"/>
<path fill-rule="evenodd" clip-rule="evenodd" d="M42.3442 10.0108H44.9002V8.09381H42.3442V10.0108Z" fill="#174988"/>
<path fill-rule="evenodd" clip-rule="evenodd" d="M27.2217 10.0108H29.7777V8.09381H27.2217V10.0108Z" fill="#174988"/>
<path fill-rule="evenodd" clip-rule="evenodd" d="M32.3336 10.0108H34.8895V8.09381H32.3336V10.0108Z" fill="#174988"/>
<path fill-rule="evenodd" clip-rule="evenodd" d="M52.3552 10.0108H54.9111V8.09381H52.3552V10.0108Z" fill="#174988"/>
<path fill-rule="evenodd" clip-rule="evenodd" d="M57.4667 10.0108H60.0227V8.09381H57.4667V10.0108Z" fill="#174988"/>
<path fill-rule="evenodd" clip-rule="evenodd" d="M37.2322 10.0108H39.7881V8.09381H37.2322V10.0108Z" fill="#174988"/>
<path fill-rule="evenodd" clip-rule="evenodd" d="M47.4562 10.0108H49.7992V8.09381H47.4562V10.0108Z" fill="#174988"/>
<path fill-rule="evenodd" clip-rule="evenodd" d="M22.3226 10.0108H24.6656V8.09381H22.3226V10.0108Z" fill="#174988"/>
<path d="M7.46992 46.6617L14.2754 39.8074C14.4024 39.6706 14.4854 39.568 14.5343 39.4898C14.5832 39.4165 14.6076 39.3335 14.6076 39.2455C14.6076 39.1625 14.5636 39.0843 14.4757 39.0208C14.3926 38.9524 14.2852 38.9182 14.163 38.9182H12.2039V38.0681H19.2293V38.9182H18.0568C17.4852 38.9182 16.9966 39.011 16.596 39.1918C16.1954 39.3725 15.6873 39.7731 15.0669 40.3936L11.0559 44.4584L18.9362 56.1542H21.2226V57.0922H11.0559V56.1542H13.3764L7.46992 47.3652V46.6617ZM0 56.1542H2.31568V38.9182H0V38.0681H9.52671V38.9182H7.18168V56.1542H9.52671V57.0922H0V56.1542ZM29.3765 56.1542H31.9218C33.2507 56.1542 34.1154 55.8953 34.5209 55.3725C34.9215 54.8547 35.1218 53.6577 35.1218 51.7866C35.1218 50.0425 34.8824 48.8797 34.4036 48.3081C33.9249 47.7365 32.9673 47.4483 31.5212 47.4483H29.3765V56.1542ZM29.3765 46.6275H31.1939C32.5814 46.6275 33.4998 46.3881 33.9346 45.9142C34.3744 45.4354 34.5942 44.3851 34.5942 42.763C34.5942 40.9994 34.4036 39.9197 34.0177 39.5191C33.6317 39.1185 32.6302 38.9182 31.018 38.9182H29.3765V46.6275ZM22.5759 56.1542H24.6278V38.9182H22.5759V38.0388H33.2067C35.1951 38.0388 36.7584 38.4492 37.9115 39.2651C39.0595 40.0809 39.636 41.185 39.636 42.5774C39.636 43.7304 39.1768 44.6684 38.2632 45.3915C37.3447 46.1097 35.9865 46.5982 34.1789 46.8571V47.1014C36.2406 47.2724 37.7942 47.7561 38.8348 48.5573C39.8754 49.3536 40.3981 50.448 40.3981 51.8403C40.3981 53.4525 39.7337 54.7325 38.4098 55.6754C37.0809 56.6183 35.2781 57.0922 33.0064 57.0922H22.5759V56.1542ZM47.1645 57.0922V56.1542H49.5096V38.9182H48.4788C47.233 38.9182 46.2461 39.3041 45.5279 40.076C44.8048 40.848 44.1697 42.2208 43.6177 44.1945H42.8556L43.0852 38.0388H60.844L61.0882 44.1945H60.3261C59.8034 42.2794 59.1731 40.9213 58.4403 40.12C57.7026 39.3188 56.7304 38.9182 55.5187 38.9182H54.4342V56.1542H56.7792V57.0922H47.1645ZM64.7279 51.9381V38.9182H62.5001V38.0388H72.0269V38.9182H69.5353V51.8403C69.5353 53.4525 69.8479 54.63 70.4733 55.3676C71.0986 56.1054 72.0855 56.4766 73.429 56.4766C74.1472 56.4766 74.7969 56.3741 75.3783 56.1738C75.9597 55.9735 76.4629 55.6754 76.8929 55.2748C77.3716 54.8351 77.7087 54.3075 77.909 53.6871C78.1093 53.0666 78.2119 51.9722 78.2119 50.4089V50.1206V40.4229C78.2119 39.7731 78.1289 39.3579 77.9676 39.182C77.8064 39.0061 77.4107 38.9182 76.7804 38.9182H75.8375V38.0388H81.8761V38.9182H80.9429C80.2687 38.9182 79.8242 39.0159 79.614 39.2162C79.404 39.4165 79.2965 39.8269 79.2965 40.4474V50.4089C79.2965 51.8403 79.2281 52.8712 79.0913 53.4965C78.9497 54.1267 78.7151 54.669 78.3829 55.1282C77.8064 55.9393 77.0247 56.5402 76.033 56.9359C75.0412 57.3316 73.7905 57.532 72.2858 57.532C69.8138 57.532 67.9377 57.0532 66.6529 56.1005C65.3679 55.1478 64.7279 53.7603 64.7279 51.9381Z" fill="#174988"/>
<path d="M1.60223 65.9729L2.90274 64.6631C2.92701 64.6369 2.94289 64.6173 2.95225 64.6024C2.96155 64.5884 2.96626 64.5725 2.96626 64.5557C2.96626 64.5398 2.95786 64.5249 2.94102 64.5128C2.92514 64.4997 2.90461 64.4932 2.88131 64.4932H2.50691V64.3307H3.84945V64.4932H3.62539C3.51617 64.4932 3.42277 64.5109 3.34621 64.5454C3.26965 64.58 3.17256 64.6565 3.05398 64.7751L2.2875 65.5519L3.79342 67.787H4.23036V67.9663H2.2875V67.787H2.73097L1.60223 66.1074V65.9729ZM0.174683 67.787H0.617244V64.4932H0.174683V64.3307H1.99528V64.4932H1.5471V67.787H1.99528V67.9663H0.174683V67.787ZM4.93804 66.7563H5.92586L5.44502 65.48L4.93804 66.7563ZM3.9699 67.9663V67.787H4.19396C4.25463 67.787 4.30505 67.7665 4.34423 67.7263C4.38438 67.6862 4.4255 67.6134 4.46752 67.5078L5.71859 64.2523H5.93703L7.3048 67.787H7.62788V67.9663H5.86331V67.787H6.30678L5.98654 66.9355H4.87833L4.63742 67.5573C4.63181 67.5676 4.62806 67.5853 4.62529 67.6077C4.62251 67.6301 4.62064 67.6573 4.62064 67.6881C4.62064 67.7198 4.63555 67.7441 4.66357 67.7609C4.69158 67.7786 4.73173 67.787 4.78214 67.787H5.108V67.9663H3.9699ZM7.71283 67.9663V67.7581L9.55951 64.4932H8.97693C8.73235 64.4932 8.53534 64.5613 8.3841 64.6967C8.23376 64.833 8.13015 65.0375 8.07134 65.311H7.89208L7.96019 64.3251H10.5753V64.4866L8.71459 67.787H9.286C9.60153 67.787 9.84334 67.7077 10.0105 67.5498C10.1785 67.3921 10.3148 67.1148 10.4185 66.7171H10.5753L10.5426 67.9663H7.71283ZM11.6938 66.7563H12.6816L12.2008 65.48L11.6938 66.7563ZM10.7257 67.9663V67.787H10.9497C11.0104 67.787 11.0608 67.7665 11.1 67.7263C11.1402 67.6862 11.1813 67.6134 11.2233 67.5078L12.4744 64.2523H12.6928L14.0606 67.787H14.3837V67.9663H12.6191V67.787H13.0626L12.7423 66.9355H11.6341L11.3932 67.5573C11.3876 67.5676 11.3838 67.5853 11.3811 67.6077C11.3783 67.6301 11.3764 67.6573 11.3764 67.6881C11.3764 67.7198 11.3913 67.7441 11.4194 67.7609C11.4474 67.7786 11.4875 67.787 11.5379 67.787H11.8638V67.9663H10.7257ZM16.0418 65.9729L17.3423 64.6631C17.3666 64.6369 17.3824 64.6173 17.3918 64.6024C17.4011 64.5884 17.4058 64.5725 17.4058 64.5557C17.4058 64.5398 17.3974 64.5249 17.3806 64.5128C17.3647 64.4997 17.3442 64.4932 17.3209 64.4932H16.9465V64.3307H18.289V64.4932H18.0649C17.9557 64.4932 17.8623 64.5109 17.7858 64.5454C17.7092 64.58 17.6121 64.6565 17.4935 64.7751L16.7271 65.5519L18.233 67.787H18.6699V67.9663H16.7271V67.787H17.1705L16.0418 66.1074V65.9729ZM14.6142 67.787H15.0568V64.4932H14.6142V64.3307H16.4348V64.4932H15.9867V67.787H16.4348V67.9663H14.6142V67.787ZM18.8781 67.9663V67.787H19.3207V64.4932H18.8781V64.3307H20.6819V64.4932H20.245V65.9888H21.4661V64.4932H21.0292V64.3307H22.8274V64.4932H22.3848V67.787H22.8274V67.9663H21.0292V67.787H21.4661V66.1961H20.245V67.787H20.6819V67.9663H18.8781ZM26.2211 67.787H26.7076C26.9615 67.787 27.1268 67.7375 27.2042 67.6376C27.2808 67.5387 27.3191 67.3099 27.3191 66.9524C27.3191 66.619 27.2734 66.3968 27.1818 66.2876C27.0904 66.1783 26.9073 66.1233 26.631 66.1233H26.2211V67.787ZM26.2211 65.9664H26.5685C26.8336 65.9664 27.0091 65.9206 27.0922 65.8301C27.1763 65.7386 27.2182 65.5379 27.2182 65.2279C27.2182 64.8909 27.1818 64.6846 27.1081 64.608C27.0343 64.5314 26.8429 64.4932 26.5348 64.4932H26.2211V65.9664ZM24.9215 67.787H25.3136V64.4932H24.9215V64.3251H26.9531C27.3331 64.3251 27.6319 64.4035 27.8522 64.5595C28.0716 64.7154 28.1818 64.9264 28.1818 65.1924C28.1818 65.4128 28.094 65.592 27.9194 65.7302C27.7439 65.8675 27.4844 65.9608 27.1389 66.0103V66.057C27.5329 66.0896 27.8298 66.1821 28.0287 66.3352C28.2275 66.4874 28.3274 66.6965 28.3274 66.9626C28.3274 67.2707 28.2004 67.5153 27.9474 67.6955C27.6935 67.8757 27.3489 67.9663 26.9148 67.9663H24.9215V67.787ZM28.8642 67.787H29.2955V64.4932H28.8642V64.3251H30.8986C31.3178 64.3251 31.639 64.3932 31.8622 64.5305C32.0852 64.6668 32.1973 64.8647 32.1973 65.1215C32.1973 65.3829 32.0927 65.5892 31.8827 65.7433C31.6735 65.8964 31.3748 65.9823 30.9883 66V66.0467C31.3841 66.099 31.6642 66.2232 31.8276 66.4174C31.9919 66.6115 32.0741 66.9215 32.0741 67.3463C32.0741 67.5209 32.0918 67.6367 32.1264 67.6927C32.1609 67.7478 32.2216 67.7758 32.3094 67.7758C32.3439 67.7758 32.3812 67.7721 32.4223 67.7636C32.4634 67.7552 32.5073 67.7431 32.5549 67.7263L32.6119 67.8767C32.4914 67.9308 32.3766 67.9728 32.2664 68.0018C32.1563 68.0307 32.0601 68.0447 31.9779 68.0447C31.8267 68.0447 31.6894 68.0223 31.5662 67.9765C31.4439 67.9308 31.3458 67.8673 31.273 67.7851C31.1301 67.6264 31.0517 67.3314 31.0377 66.8991C31.0358 66.8403 31.034 66.7974 31.0321 66.7675C31.0209 66.5163 30.9621 66.3418 30.8547 66.2428C30.7465 66.1448 30.5653 66.0953 30.3104 66.0953H30.2142V67.787H30.6904V67.9663H28.8642V67.787ZM30.2142 65.916H30.6736C30.8809 65.916 31.0218 65.8731 31.0956 65.7862C31.1694 65.6994 31.2058 65.5155 31.2058 65.2345C31.2058 64.8806 31.1749 64.6687 31.1143 64.5986C31.0536 64.5286 30.907 64.4932 30.6736 64.4932H30.2142V65.916ZM32.8349 67.9663V67.787H33.2831V64.4932H32.8349V64.3251H34.6723V64.4932H34.2242V67.787H34.6723V67.9663H32.8349ZM35.7582 67.9663V67.787H36.2063V64.4932H36.0093C35.7712 64.4932 35.5827 64.5669 35.4454 64.7144C35.3072 64.8619 35.1859 65.1243 35.0803 65.5015H34.9347L34.9786 64.3251H38.3723L38.4191 65.5015H38.2734C38.1735 65.1355 38.0531 64.876 37.913 64.7228C37.772 64.5697 37.5862 64.4932 37.3547 64.4932H37.1474V67.787H37.5956V67.9663H35.7582ZM38.672 67.9663V67.787H39.1202V64.4932H38.672V64.3251H40.5094V64.4932H40.0613V67.787H40.5094V67.9663H38.672ZM40.9455 68.0092V66.9411H41.1583C41.2517 67.2511 41.3889 67.4854 41.5719 67.6442C41.7558 67.8029 41.9799 67.8822 42.246 67.8822C42.485 67.8822 42.682 67.8188 42.8389 67.6908C42.9957 67.563 43.0742 67.4005 43.0742 67.2035C43.0742 67.098 43.0555 67.0112 43.0181 66.9421C42.9808 66.8739 42.9173 66.8104 42.8276 66.7525C42.7259 66.6853 42.5242 66.6162 42.2236 66.5471C42.1125 66.5219 42.0275 66.5014 41.9687 66.4874C41.6167 66.3977 41.3609 66.2661 41.2013 66.0934C41.0416 65.9197 40.9622 65.6873 40.9622 65.396C40.9622 65.0542 41.0687 64.7789 41.2806 64.5679C41.4935 64.3578 41.7708 64.2523 42.1144 64.2523C42.2544 64.2523 42.3851 64.2719 42.5065 64.3111C42.6279 64.3493 42.7418 64.4082 42.8501 64.4857L43.0499 64.3251H43.2254L43.2478 65.2886H43.0629C42.992 65.0057 42.8734 64.79 42.7073 64.6425C42.542 64.4941 42.3347 64.4203 42.0873 64.4203C41.8819 64.4203 41.7129 64.4708 41.5803 64.5706C41.4487 64.6715 41.3824 64.7984 41.3824 64.9515C41.3824 65.1812 41.6261 65.3502 42.1125 65.4585C42.1779 65.4725 42.2273 65.4838 42.2619 65.4912C42.7165 65.5967 43.0359 65.747 43.2189 65.9412C43.4028 66.1354 43.4943 66.4108 43.4943 66.7675C43.4943 67.1363 43.3776 67.4416 43.1432 67.6852C42.9089 67.9289 42.6138 68.0503 42.2582 68.0503C42.077 68.0503 41.9183 68.0298 41.782 67.9887C41.6447 67.9485 41.5178 67.8832 41.3992 67.7945L41.1471 68.0092H40.9455ZM43.9079 67.9663V67.787H44.3505V64.4932H43.9079V64.3307H45.7117V64.4932H45.2748V65.9888H46.4959V64.4932H46.059V64.3307H47.8572V64.4932H47.4146V67.787H47.8572V67.9663H46.059V67.787H46.4959V66.1961H45.2748V67.787H45.7117V67.9663H43.9079ZM50.6572 67.9663V67.787H51.1053V64.4932H50.9083C50.6702 64.4932 50.4816 64.5669 50.3443 64.7144C50.2062 64.8619 50.0849 65.1243 49.9793 65.5015H49.8337L49.8776 64.3251H53.2713L53.318 65.5015H53.1723C53.0725 65.1355 52.952 64.876 52.8119 64.7228C52.671 64.5697 52.4852 64.4932 52.2536 64.4932H52.0464V67.787H52.4945V67.9663H50.6572ZM53.5934 67.9663V67.787H54.036V64.4932H53.6559V64.3251H56.6912L56.7024 65.283H56.5176C56.3934 64.973 56.2683 64.7639 56.1404 64.6556C56.0125 64.5473 55.8267 64.4932 55.583 64.4932H54.9547V65.9888C54.9696 65.9907 54.9864 65.9926 55.0051 65.9935C55.0247 65.9944 55.0499 65.9944 55.0835 65.9944C55.2814 65.9944 55.4318 65.9421 55.5335 65.8376C55.6362 65.733 55.7025 65.5631 55.7333 65.3278H55.9181V66.8795H55.7333C55.7137 66.6274 55.6512 66.4473 55.5475 66.338C55.4439 66.2288 55.2814 66.1737 55.0611 66.1737H54.9547V67.787H55.5643C55.865 67.787 56.1002 67.7077 56.2692 67.549C56.4391 67.3893 56.5726 67.1232 56.6688 66.7507H56.8425L56.8042 67.9663H53.5934ZM60.4734 66.8739V67.9663H60.2932L60.0467 67.7646C59.9384 67.8608 59.8114 67.9336 59.6648 67.9822C59.5182 68.0316 59.3548 68.0559 59.1747 68.0559C58.9245 68.0559 58.6957 68.0073 58.4884 67.9112C58.2803 67.8141 58.087 67.6666 57.9086 67.4677C57.7322 67.2745 57.5996 67.0681 57.5128 66.8487C57.425 66.6293 57.3811 66.394 57.3811 66.1448C57.3811 65.8983 57.425 65.6667 57.5137 65.4483C57.6024 65.2307 57.736 65.0244 57.9143 64.8293C58.0926 64.6341 58.2877 64.4885 58.4987 64.3914C58.7107 64.2953 58.9413 64.2466 59.1906 64.2466C59.3437 64.2466 59.4884 64.2681 59.6256 64.312C59.7619 64.3559 59.8936 64.4213 60.0187 64.5081L60.2166 64.3195H60.4005L60.423 65.3278H60.2269C60.1064 65.0038 59.9645 64.7714 59.8002 64.6285C59.6359 64.4857 59.4286 64.4147 59.1793 64.4147C58.8983 64.4147 58.7078 64.5072 58.607 64.6911C58.5071 64.875 58.4567 65.3381 58.4567 66.0785C58.4567 66.4697 58.4614 66.761 58.4707 66.9542C58.4791 67.1484 58.495 67.2875 58.5174 67.3734C58.5622 67.5555 58.6378 67.6871 58.7415 67.7674C58.8451 67.8477 58.9917 67.8878 59.1793 67.8878C59.437 67.8878 59.6667 67.7935 59.8702 67.604C60.0737 67.4155 60.2063 67.1718 60.2661 66.8739H60.4734ZM60.9728 67.9663V67.787H61.4154V64.4932H60.9728V64.3307H62.7766V64.4932H62.3397V65.9888H63.5609V64.4932H63.1239V64.3307H64.9221V64.4932H64.4796V67.787H64.9221V67.9663H63.1239V67.787H63.5609V66.1961H62.3397V67.787H62.7766V67.9663H60.9728ZM65.2526 67.9663V67.787H65.5346C65.6074 67.787 65.6578 67.7711 65.6868 67.7394C65.7148 67.7077 65.7287 67.6451 65.7287 67.5517V64.6846C65.7287 64.6061 65.7129 64.5547 65.6821 64.5305C65.6513 64.5053 65.5869 64.4932 65.4879 64.4932H65.2638V64.3251H66.7381L68.272 66.422V64.7639C68.272 64.6528 68.2552 64.58 68.2216 64.5454C68.1879 64.5109 68.1151 64.4932 68.0031 64.4932H67.7678V64.3251H68.933V64.4932H68.7202C68.6286 64.4932 68.5661 64.5118 68.5315 64.5492C68.497 64.5865 68.4793 64.6584 68.4793 64.7639V68.0503H68.3289L65.9473 64.7751V67.5872C65.9473 67.6507 65.965 67.7002 66.0004 67.7347C66.0359 67.7693 66.0873 67.787 66.1545 67.787H66.4794V67.9663H65.2526ZM69.257 67.9663V67.787H69.7052V64.4932H69.257V64.3251H71.0944V64.4932H70.6462V67.787H71.0944V67.9663H69.257ZM74.6114 66.8739V67.9663H74.4312L74.1847 67.7646C74.0764 67.8608 73.9494 67.9336 73.8029 67.9822C73.6563 68.0316 73.4929 68.0559 73.3127 68.0559C73.0625 68.0559 72.8337 68.0073 72.6265 67.9112C72.4183 67.8141 72.225 67.6666 72.0467 67.4677C71.8703 67.2745 71.7377 67.0681 71.6508 66.8487C71.5631 66.6293 71.5192 66.394 71.5192 66.1448C71.5192 65.8983 71.5631 65.6667 71.6517 65.4483C71.7404 65.2307 71.874 65.0244 72.0523 64.8293C72.2307 64.6341 72.4258 64.4885 72.6367 64.3914C72.8487 64.2953 73.0793 64.2466 73.3286 64.2466C73.4817 64.2466 73.6264 64.2681 73.7637 64.312C73.8999 64.3559 74.0316 64.4213 74.1567 64.5081L74.3546 64.3195H74.5385L74.561 65.3278H74.3649C74.2444 65.0038 74.1026 64.7714 73.9382 64.6285C73.7739 64.4857 73.5667 64.4147 73.3174 64.4147C73.0364 64.4147 72.8459 64.5072 72.7451 64.6911C72.6451 64.875 72.5947 65.3381 72.5947 66.0785C72.5947 66.4697 72.5994 66.761 72.6087 66.9542C72.6172 67.1484 72.633 67.2875 72.6555 67.3734C72.7003 67.5555 72.7758 67.6871 72.8795 67.7674C72.9831 67.8477 73.1297 67.8878 73.3174 67.8878C73.5751 67.8878 73.8047 67.7935 74.0083 67.604C74.2118 67.4155 74.3444 67.1718 74.4041 66.8739H74.6114ZM75.9166 66.7563H76.9044L76.4236 65.48L75.9166 66.7563ZM74.9484 67.9663V67.787H75.1725C75.2332 67.787 75.2836 67.7665 75.3228 67.7263C75.3629 67.6862 75.404 67.6134 75.4461 67.5078L76.6971 64.2523H76.9156L78.2833 67.787H78.6064V67.9663H76.8419V67.787H77.2853L76.9651 66.9355H75.8569L75.616 67.5573C75.6103 67.5676 75.6066 67.5853 75.6038 67.6077C75.6011 67.6301 75.5992 67.6573 75.5992 67.6881C75.5992 67.7198 75.6141 67.7441 75.6421 67.7609C75.6701 67.7786 75.7103 67.787 75.7607 67.787H76.0865V67.9663H74.9484ZM78.865 67.9663V67.787H79.2403V64.4932H78.865V64.3251H80.68V64.4932H80.1758V67.787H80.707C81.0068 67.787 81.242 67.7077 81.4119 67.549C81.5819 67.3893 81.7144 67.1232 81.8116 66.7507H81.9852L81.9441 67.9663H78.865Z" fill="#174988"/>
<path d="M1.16433 78.8645V72.857H0.136414V72.4513H4.53214V72.857H3.3825V78.8194C3.3825 79.5633 3.52674 80.1065 3.81528 80.4469C4.10382 80.7873 4.55919 80.9586 5.17907 80.9586C5.51048 80.9586 5.81025 80.9113 6.0785 80.8189C6.34676 80.7264 6.57897 80.5889 6.7773 80.4041C6.99822 80.2012 7.15375 79.9578 7.24619 79.6715C7.33863 79.3852 7.38596 78.8802 7.38596 78.1589V78.0259V73.5513C7.38596 73.2515 7.34762 73.0599 7.27324 72.9787C7.19885 72.8976 7.01627 72.857 6.7255 72.857H6.29042V72.4513H9.07663V72.857H8.64608C8.33496 72.857 8.12986 72.9021 8.0329 72.9945C7.93599 73.087 7.88636 73.2763 7.88636 73.5626V78.1589C7.88636 78.8194 7.85484 79.295 7.79169 79.5836C7.72636 79.8743 7.61811 80.1246 7.46487 80.3365C7.19885 80.7107 6.83816 80.9879 6.38057 81.1705C5.92297 81.3531 5.34589 81.4455 4.65162 81.4455C3.51099 81.4455 2.64537 81.2246 2.05253 80.7851C1.45963 80.3455 1.16433 79.7053 1.16433 78.8645ZM9.69875 81.2426V80.8099H10.3796C10.5554 80.8099 10.6771 80.7715 10.7469 80.6948C10.8146 80.6182 10.8484 80.4672 10.8484 80.2418V73.3191C10.8484 73.1298 10.8101 73.0058 10.7357 72.9472C10.6613 72.8863 10.5058 72.857 10.2668 72.857H9.7258V72.4513H13.2852L16.9889 77.5142V73.5108C16.9889 73.2425 16.9483 73.0667 16.8671 72.9832C16.786 72.8999 16.6102 72.857 16.3396 72.857H15.7716V72.4513H18.5849V72.857H18.0709C17.85 72.857 17.699 72.9021 17.6155 72.9922C17.5321 73.0824 17.4893 73.256 17.4893 73.5108V81.4455H17.1263L11.3759 73.5378V80.3275C11.3759 80.4808 11.4187 80.6002 11.5044 80.6836C11.59 80.767 11.714 80.8099 11.8764 80.8099H12.6608V81.2426H9.69875ZM19.367 81.2426V80.8099H20.4491V72.857H19.367V72.4513H23.8033V72.857H22.7213V80.8099H23.8033V81.2426H19.367ZM28.5665 81.4455L25.0341 72.857H24.288V72.4513H28.429V72.857H27.4123L29.6575 78.2987L31.267 73.7361C31.3211 73.5987 31.3594 73.4837 31.3842 73.3913C31.409 73.2988 31.4203 73.2244 31.4203 73.1681C31.4203 73.0486 31.3775 72.9675 31.2918 72.9224C31.2061 72.8796 31.0213 72.857 30.7395 72.857H30.1985V72.4513H32.9982V72.857H32.6218C32.3964 72.857 32.2205 72.9178 32.0943 73.0396C31.9658 73.1591 31.8305 73.4251 31.6908 73.8331L28.9699 81.4455H28.5665ZM33.5144 81.2426V80.8099H34.583V72.857H33.6655V72.4513H40.9939L41.0209 74.7641H40.5746C40.2748 74.0157 39.9727 73.5108 39.6639 73.2493C39.3551 72.9878 38.9065 72.857 38.3182 72.857H36.8011V76.4682C36.8371 76.4728 36.8777 76.4772 36.9228 76.4795C36.9702 76.4818 37.031 76.4818 37.1122 76.4818C37.59 76.4818 37.953 76.3555 38.1987 76.1031C38.4467 75.8506 38.6067 75.4403 38.6811 74.8722H39.1274V78.6187H38.6811C38.6338 78.0101 38.4827 77.5751 38.2325 77.3113C37.9823 77.0476 37.59 76.9146 37.0581 76.9146H36.8011V80.8099H38.2731C38.9989 80.8099 39.567 80.6182 39.975 80.235C40.3853 79.8496 40.7076 79.2071 40.9398 78.3077H41.3591L41.2667 81.2426H33.5144ZM42.4298 80.8099H43.4713V72.857H42.4298V72.4513H47.3418C48.3539 72.4513 49.1293 72.6158 49.6681 72.9472C50.2068 73.2763 50.4774 73.7542 50.4774 74.3741C50.4774 75.0053 50.2249 75.5034 49.7177 75.8754C49.2127 76.2451 48.4914 76.4525 47.5582 76.4953V76.608C48.5139 76.7343 49.1902 77.034 49.5847 77.5029C49.9814 77.9718 50.1798 78.7202 50.1798 79.7458C50.1798 80.1674 50.2227 80.4469 50.306 80.5822C50.3895 80.7151 50.5359 80.7828 50.7479 80.7828C50.8312 80.7828 50.9214 80.7738 51.0206 80.7535C51.1198 80.7332 51.2257 80.7039 51.3407 80.6633L51.4782 81.0263C51.1875 81.157 50.9102 81.2584 50.6442 81.3283C50.3782 81.3982 50.146 81.432 49.9476 81.432C49.5825 81.432 49.2511 81.3779 48.9535 81.2675C48.6582 81.157 48.4216 81.0037 48.2457 80.8053C47.9008 80.4221 47.7115 79.7098 47.6777 78.6661C47.6731 78.5241 47.6687 78.4204 47.6641 78.3482C47.6371 77.7419 47.4951 77.3203 47.2358 77.0814C46.9743 76.8447 46.537 76.7252 45.9216 76.7252H45.6895V80.8099H46.8391V81.2426H42.4298V80.8099ZM45.6895 76.2924H46.7985C47.2989 76.2924 47.6393 76.1887 47.8174 75.9791C47.9955 75.7694 48.0834 75.3254 48.0834 74.6469C48.0834 73.7925 48.009 73.2808 47.8625 73.1117C47.716 72.9427 47.3621 72.857 46.7985 72.857H45.6895V76.2924ZM52.3281 81.3463V78.7675H52.842C53.0675 79.5159 53.3988 80.0817 53.8407 80.4649C54.2847 80.8481 54.8258 81.0398 55.4682 81.0398C56.0452 81.0398 56.5209 80.8865 56.8996 80.5777C57.2783 80.2688 57.4677 79.8766 57.4677 79.401C57.4677 79.1463 57.4226 78.9366 57.3324 78.7698C57.2422 78.6052 57.089 78.4519 56.8725 78.3122C56.6269 78.1499 56.1399 77.9831 55.4141 77.8163C55.1458 77.7554 54.9407 77.7058 54.7987 77.672C53.9489 77.4556 53.3312 77.1378 52.9458 76.7207C52.5603 76.3014 52.3687 75.7402 52.3687 75.0368C52.3687 74.2118 52.6256 73.5468 53.1373 73.0373C53.6513 72.5302 54.3208 72.2755 55.1503 72.2755C55.4885 72.2755 55.804 72.3228 56.0971 72.4175C56.3902 72.5099 56.6652 72.6519 56.9266 72.839L57.409 72.4513H57.8328L57.8869 74.7776H57.4406C57.2693 74.0946 56.983 73.5738 56.5818 73.2177C56.1828 72.8593 55.6823 72.6812 55.085 72.6812C54.589 72.6812 54.1811 72.8029 53.861 73.0441C53.5431 73.2875 53.3831 73.5941 53.3831 73.9638C53.3831 74.5184 53.9714 74.9263 55.1458 75.1878C55.3036 75.2216 55.4231 75.2487 55.5065 75.2667C56.6043 75.5215 57.3752 75.8844 57.8171 76.3533C58.2611 76.8222 58.4821 77.4872 58.4821 78.3482C58.4821 79.2387 58.2003 79.9758 57.6345 80.5641C57.0687 81.1525 56.3564 81.4455 55.4975 81.4455C55.0602 81.4455 54.6769 81.3959 54.3478 81.2967C54.0165 81.1998 53.7099 81.042 53.4236 80.8279L52.815 81.3463H52.3281ZM59.4265 81.2426V80.8099H60.5085V72.857H59.4265V72.4513H63.8628V72.857H62.7808V80.8099H63.8628V81.2426H59.4265ZM66.4844 81.2426V80.8099H67.5665V72.857H67.0909C66.516 72.857 66.0607 73.0351 65.7293 73.3913C65.3957 73.7474 65.1027 74.3808 64.8479 75.2916H64.4962L64.6022 72.4513H72.7962L72.9089 75.2916H72.5573C72.3161 74.4079 72.0253 73.7812 71.6872 73.4116C71.3467 73.0419 70.8982 72.857 70.3391 72.857H69.8387V80.8099H70.9207V81.2426H66.4844ZM75.5216 81.2426V80.8099H76.6036V77.0656L74.0338 72.857H73.1682V72.4513H77.5954V72.857H76.5112L78.6639 76.4299L80.1765 73.5896C80.2464 73.4544 80.296 73.3507 80.3253 73.2831C80.3523 73.2154 80.3681 73.1591 80.3681 73.114C80.3681 73.026 80.3298 72.9607 80.2554 72.9201C80.181 72.8773 80.0683 72.857 79.9173 72.857H79.1599V72.4513H82.0001V72.857H81.6372C81.4028 72.857 81.2134 72.9156 81.0647 73.0351C80.9181 73.1546 80.7378 73.4116 80.5259 73.8083L78.8758 76.892V80.8099H79.9578V81.2426H75.5216Z" fill="#174988"/>
</svg>
